<svg width="115" height="31" viewBox="0 0 115 31" fill="none" xmlns="http://www.w3.org/2000/svg">
<path d="M99.3681 0.0379782C90.9866 0.0379782 84.1441 6.55324 83.7363 14.7417H115C114.592 6.55324 107.75 0.0379782 99.3681 0.0379782Z" fill="#63C43F"/>
<path d="M99.3681 30.9937C90.9866 30.9937 84.1441 24.4784 83.7363 16.2898H115C114.592 24.4784 107.75 30.9937 99.3681 30.9937Z" fill="#7BCD54"/>
<path d="M81.3957 30.9937H66.5269V0.0382862H81.3957V15.516V30.9937Z" fill="#63C43F"/>
<path d="M47.7472 30.9937H32.8784V0.0382862H47.7472V15.516V30.9937Z" fill="#63C43F"/>
<path d="M49.3179 16.2964C49.3179 31.0001 49.3179 31.0001 64.9497 31.0001C64.9497 16.2964 64.9497 16.2964 49.3179 16.2964Z" fill="#7BCD54"/>
<path d="M-6.4278e-07 14.7051L0 0L31.3001 1.36817e-06L31.3001 14.7051L15.65 14.7051L-6.4278e-07 14.7051Z" fill="#63C43F"/>
<path d="M23.1035 30.9556H8.24268V16.2584H23.1035V23.607V30.9556Z" fill="#7BCD54"/>
<path d="M64.1787 7.38665C64.1787 11.4452 60.852 14.7352 56.7483 14.7352C52.6446 14.7352 49.3179 11.4452 49.3179 7.38665C49.3179 3.32815 52.6446 0.0380859 56.7483 0.0380859C60.852 0.0380859 64.1787 3.32815 64.1787 7.38665Z" fill="#7BCD54"/>
<path d="M56.7483 14.7352C52.6446 14.7352 49.3179 11.4452 49.3179 7.38665V14.7352H56.7483Z" fill="#7BCD54"/>
<path d="M49.3179 7.38665C49.3179 3.32815 52.6446 0.0380859 56.7483 0.0380859H49.3179V7.38665Z" fill="#7BCD54"/>
</svg>
